<svg width="24" height="25" viewBox="0 0 24 25" fill="none" xmlns="http://www.w3.org/2000/svg">
<path d="M3.5291 12.2171C3.37283 11.9248 3.00927 11.8146 2.71706 11.9709C2.42485 12.1272 2.31464 12.4907 2.4709 12.7829L3.5291 12.2171ZM21.5291 12.7829C21.6854 12.4907 21.5752 12.1272 21.2829 11.9709C20.9907 11.8146 20.6272 11.9248 20.4709 12.2171L21.5291 12.7829ZM11.4 20.38C11.4 20.7114 11.6686 20.98 12 20.98C12.3314 20.98 12.6 20.7114 12.6 20.38H11.4ZM17.5083 18.7238C17.6981 18.9954 18.0722 19.0616 18.3438 18.8717C18.6154 18.6819 18.6816 18.3078 18.4917 18.0362L17.5083 18.7238ZM7 16.9497L7.344 16.4581L7 16.9497ZM5.50827 18.0362C5.31839 18.3078 5.38462 18.6819 5.6562 18.8717C5.92778 19.0616 6.30186 18.9954 6.49173 18.7238L5.50827 18.0362ZM11.4 18.62V20.38H12.6V18.62H11.4ZM21 12.5C20.4709 12.2171 20.471 12.2169 20.471 12.2168L20.4711 12.2167C20.4711 12.2166 20.4712 12.2166 20.4712 12.2166C20.4712 12.2165 20.4711 12.2167 20.4709 12.217C20.4706 12.2176 20.4699 12.2188 20.4689 12.2207C20.4669 12.2244 20.4636 12.2305 20.4589 12.239C20.4494 12.256 20.4347 12.2823 20.4145 12.3172C20.3743 12.3869 20.3129 12.4907 20.2307 12.6218C20.0663 12.8843 19.8194 13.2551 19.4941 13.6812C18.8412 14.5365 17.8841 15.5987 16.656 16.4581L17.344 17.4413C18.7054 16.4886 19.7483 15.3259 20.448 14.4094C20.799 13.9496 21.0667 13.5478 21.2476 13.259C21.3381 13.1146 21.4071 12.9981 21.4541 12.9166C21.4776 12.8758 21.4957 12.8437 21.5082 12.8211C21.5145 12.8099 21.5193 12.801 21.5228 12.7946C21.5246 12.7914 21.5259 12.7888 21.527 12.7868C21.5275 12.7859 21.528 12.7851 21.5283 12.7844C21.5285 12.7841 21.5286 12.7838 21.5288 12.7836C21.5288 12.7834 21.5289 12.7833 21.5289 12.7832C21.529 12.7831 21.5291 12.7829 21 12.5ZM16.656 16.4581C15.3737 17.3555 13.8138 18.02 12 18.02V19.22C14.1209 19.22 15.9165 18.4403 17.344 17.4413L16.656 16.4581ZM16.5083 17.2935L17.5083 18.7238L18.4917 18.0362L17.4917 16.6059L16.5083 17.2935ZM12 18.02C10.1862 18.02 8.62635 17.3555 7.344 16.4581L6.656 17.4413C8.08352 18.4403 9.8791 19.22 12 19.22V18.02ZM7.344 16.4581C6.11591 15.5987 5.15879 14.5365 4.50585 13.6812C4.18056 13.2551 3.93375 12.8843 3.76928 12.6218C3.68711 12.4907 3.62567 12.3869 3.58545 12.3172C3.56535 12.2823 3.55056 12.256 3.54114 12.239C3.53643 12.2305 3.53307 12.2244 3.53106 12.2207C3.53006 12.2188 3.52939 12.2176 3.52906 12.217C3.5289 12.2167 3.52882 12.2165 3.52883 12.2166C3.52883 12.2166 3.52885 12.2166 3.5289 12.2167C3.52892 12.2167 3.52897 12.2168 3.52898 12.2168C3.52904 12.2169 3.5291 12.2171 3 12.5C2.4709 12.7829 2.47097 12.7831 2.47105 12.7832C2.47108 12.7833 2.47117 12.7834 2.47123 12.7836C2.47136 12.7838 2.47152 12.7841 2.47169 12.7844C2.47204 12.7851 2.47248 12.7859 2.473 12.7868C2.47405 12.7888 2.47545 12.7914 2.47719 12.7946C2.48068 12.801 2.48555 12.8099 2.49181 12.8211C2.50432 12.8437 2.52236 12.8758 2.54588 12.9166C2.59291 12.9981 2.6619 13.1146 2.75243 13.259C2.93335 13.5478 3.20101 13.9496 3.55202 14.4094C4.25171 15.3259 5.29459 16.4886 6.656 17.4413L7.344 16.4581ZM6.50827 16.6059L5.50827 18.0362L6.49173 18.7238L7.49173 17.2935L6.50827 16.6059Z" fill="currentColor"/>
</svg>
