<?xml version="1.0" standalone="no"?>
<!DOCTYPE svg PUBLIC "-//W3C//DTD SVG 20010904//EN"
 "http://www.w3.org/TR/2001/REC-SVG-20010904/DTD/svg10.dtd">
<svg version="1.0" xmlns="http://www.w3.org/2000/svg"
 width="195.000000pt" height="281.000000pt" viewBox="0 0 195.000000 281.000000"
 preserveAspectRatio="xMidYMid meet">

<g transform="translate(0.000000,281.000000) scale(0.100000,-0.100000)"
fill="#000000" stroke="none">
<path d="M805 2714 c-120 -26 -227 -86 -326 -184 -94 -93 -142 -170 -180 -285
-22 -68 -23 -84 -27 -472 l-3 -403 230 0 231 0 0 364 0 364 28 53 c68 130 246
159 351 57 71 -69 65 3 71 -983 5 -887 5 -890 27 -930 53 -100 164 -146 277
-114 54 15 129 92 144 149 10 35 12 251 10 945 l-3 900 -23 70 c-41 121 -81
184 -177 280 -73 74 -106 99 -175 132 -142 70 -300 89 -455 57z"/>
<path d="M288 1253 c-17 -4 -18 -34 -18 -445 0 -318 3 -452 12 -482 8 -25 31
-59 58 -86 121 -122 318 -76 376 87 9 27 13 100 14 256 l0 217 100 0 c111 0
156 13 203 58 92 86 98 222 16 315 -69 79 -80 82 -434 83 -171 1 -318 0 -327
-3z"/>
</g>
</svg>
