<svg width="24" height="25" viewBox="0 0 24 25" fill="none" xmlns="http://www.w3.org/2000/svg">
<path d="M3 12.62L2.69393 12.4563C2.63925 12.5586 2.63925 12.6814 2.69393 12.7837L3 12.62ZM21 12.62L21.3061 12.7837C21.3608 12.6814 21.3608 12.5586 21.3061 12.4563L21 12.62ZM3 12.62C3.30607 12.7837 3.30602 12.7838 3.30599 12.7838C3.30599 12.7838 3.30597 12.7838 3.30598 12.7838C3.30601 12.7838 3.30608 12.7837 3.3062 12.7834C3.30644 12.783 3.30688 12.7822 3.30751 12.781C3.30879 12.7786 3.31085 12.7749 3.3137 12.7697C3.3194 12.7593 3.32825 12.7434 3.34022 12.7222C3.36415 12.6799 3.40055 12.6169 3.44922 12.536C3.54658 12.3741 3.69287 12.1412 3.88643 11.861C4.27397 11.3 4.8488 10.5523 5.59737 9.80575C7.09927 8.30786 9.26609 6.84708 12 6.84708V6.15292C9.00664 6.15292 6.67346 7.75214 5.10718 9.31425C4.32165 10.0977 3.72035 10.88 3.31527 11.4665C3.11253 11.76 2.95839 12.0053 2.8544 12.1781C2.80239 12.2646 2.76289 12.333 2.73609 12.3803C2.72269 12.404 2.71246 12.4224 2.70542 12.4352C2.70191 12.4416 2.69919 12.4466 2.69727 12.4501C2.69631 12.4519 2.69556 12.4533 2.695 12.4543C2.69472 12.4549 2.69449 12.4553 2.69431 12.4556C2.69423 12.4558 2.69413 12.456 2.69409 12.456C2.694 12.4562 2.69393 12.4563 3 12.62ZM12 6.84708C14.7339 6.84708 16.9007 8.30786 18.4026 9.80575C19.1512 10.5523 19.726 11.3 20.1136 11.861C20.3071 12.1412 20.4534 12.3741 20.5508 12.536C20.5994 12.6169 20.6358 12.6799 20.6598 12.7222C20.6718 12.7434 20.6806 12.7593 20.6863 12.7697C20.6891 12.7749 20.6912 12.7786 20.6925 12.781C20.6931 12.7822 20.6936 12.783 20.6938 12.7834C20.6939 12.7837 20.694 12.7838 20.694 12.7838C20.694 12.7838 20.694 12.7838 20.694 12.7838C20.694 12.7838 20.6939 12.7837 21 12.62C21.3061 12.4563 21.306 12.4562 21.3059 12.456C21.3059 12.456 21.3058 12.4558 21.3057 12.4556C21.3055 12.4553 21.3053 12.4549 21.305 12.4543C21.3044 12.4533 21.3037 12.4519 21.3027 12.4501C21.3008 12.4466 21.2981 12.4416 21.2946 12.4352C21.2875 12.4224 21.2773 12.404 21.2639 12.3803C21.2371 12.333 21.1976 12.2646 21.1456 12.1781C21.0416 12.0053 20.8875 11.76 20.6847 11.4665C20.2796 10.88 19.6784 10.0977 18.8928 9.31425C17.3265 7.75214 14.9934 6.15292 12 6.15292V6.84708ZM21 12.62C20.6939 12.4563 20.694 12.4562 20.694 12.4562C20.694 12.4562 20.694 12.4561 20.694 12.4562C20.694 12.4562 20.6939 12.4563 20.6938 12.4566C20.6936 12.457 20.6931 12.4578 20.6925 12.459C20.6912 12.4614 20.6891 12.4651 20.6863 12.4703C20.6806 12.4807 20.6718 12.4966 20.6598 12.5178C20.6358 12.5601 20.5994 12.6231 20.5508 12.704C20.4534 12.8659 20.3071 13.0988 20.1136 13.379C19.726 13.94 19.1512 14.6877 18.4026 15.4342C16.9007 16.9321 14.7339 18.3929 12 18.3929V19.0871C14.9934 19.0871 17.3265 17.4879 18.8928 15.9258C19.6784 15.1423 20.2796 14.36 20.6847 13.7735C20.8875 13.48 21.0416 13.2347 21.1456 13.0619C21.1976 12.9754 21.2371 12.907 21.2639 12.8597C21.2773 12.836 21.2875 12.8176 21.2946 12.8048C21.2981 12.7984 21.3008 12.7934 21.3027 12.7899C21.3037 12.7881 21.3044 12.7867 21.305 12.7857C21.3053 12.7851 21.3055 12.7847 21.3057 12.7844C21.3058 12.7842 21.3059 12.784 21.3059 12.784C21.306 12.7838 21.3061 12.7837 21 12.62ZM12 18.3929C9.26609 18.3929 7.09927 16.9321 5.59737 15.4342C4.8488 14.6877 4.27397 13.94 3.88643 13.379C3.69287 13.0988 3.54658 12.8659 3.44922 12.704C3.40055 12.6231 3.36415 12.5601 3.34022 12.5178C3.32825 12.4966 3.3194 12.4807 3.3137 12.4703C3.31085 12.4651 3.30879 12.4614 3.30751 12.459C3.30688 12.4578 3.30644 12.457 3.3062 12.4566C3.30608 12.4563 3.30601 12.4562 3.30598 12.4562C3.30597 12.4561 3.30599 12.4562 3.30599 12.4562C3.30602 12.4562 3.30607 12.4563 3 12.62C2.69393 12.7837 2.694 12.7838 2.69409 12.784C2.69413 12.784 2.69423 12.7842 2.69431 12.7844C2.69449 12.7847 2.69472 12.7851 2.695 12.7857C2.69556 12.7867 2.69631 12.7881 2.69727 12.7899C2.69919 12.7934 2.70191 12.7984 2.70542 12.8048C2.71246 12.8176 2.72269 12.836 2.73609 12.8597C2.76289 12.907 2.80239 12.9754 2.8544 13.0619C2.95839 13.2347 3.11253 13.48 3.31527 13.7735C3.72035 14.36 4.32165 15.1423 5.10718 15.9258C6.67346 17.4879 9.00664 19.0871 12 19.0871V18.3929ZM14.3529 12.62C14.3529 13.8675 13.309 14.8958 12 14.8958V15.5899C13.6733 15.5899 15.0471 14.2697 15.0471 12.62H14.3529ZM12 14.8958C10.691 14.8958 9.64708 13.8675 9.64708 12.62H8.95292C8.95292 14.2697 10.3267 15.5899 12 15.5899V14.8958ZM9.64708 12.62C9.64708 11.3725 10.691 10.3442 12 10.3442V9.65006C10.3267 9.65006 8.95292 10.9703 8.95292 12.62H9.64708ZM12 10.3442C13.309 10.3442 14.3529 11.3725 14.3529 12.62H15.0471C15.0471 10.9703 13.6733 9.65006 12 9.65006V10.3442Z" fill="currentColor"/>
</svg>
